# xmcd CD database file
#
# Track frame offsets:
#	150
#	9098
#	24699
#	35514
#	53236
#	78048
#	96501
#	113203
#
# Disc length: 1602 seconds
#
# Revision: 1
# Processed by: cddbd v1.5.1PL0 Copyright (c) Steve Scherf et al.
# Submitted via: CDex 1.51
#
DISCID=57064008
DTITLE=Acción Sanchez - Creador Series Vol. 1
DYEAR=2004
DGENRE=Hip-Hop
TTITLE0=Intro (Toteking)
TTITLE1=El corazon (Juaninacka)
TTITLE2=La cuenta atrás (Dekoh y Shotta)
TTITLE3=El último bloque (Jesuli y Buda)
TTITLE4=Válvula de escape (Dogma Crew)
TTITLE5=Humildad como reliquia (El Límite)
TTITLE6=Por lo que pueda pasar (Zatu y Loko)
TTITLE7=Outro
EXTD=YEAR: 2004
EXTT0=
EXTT1=
EXTT2=
EXTT3=
EXTT4=
EXTT5=
EXTT6=
EXTT7=
PLAYORDER=
